<svg width="1200" height="720" viewBox="0 0 1200 720" fill="none" xmlns="http://www.w3.org/2000/svg">
  <defs>
    <linearGradient id="bg3" x1="78" y1="56" x2="1110" y2="686" gradientUnits="userSpaceOnUse">
      <stop stop-color="#1A1536"/>
      <stop offset="0.6" stop-color="#2D2760"/>
      <stop offset="1" stop-color="#42349A"/>
    </linearGradient>
  </defs>
  <rect width="1200" height="720" rx="36" fill="url(#bg3)"/>
  <circle cx="1030" cy="588" r="210" fill="#6A7CFF" fill-opacity="0.28"/>
  <circle cx="222" cy="132" r="142" fill="#9E8CFF" fill-opacity="0.22"/>
  <rect x="190" y="128" width="820" height="470" rx="30" fill="#FFFFFF" fill-opacity="0.1" stroke="#FFFFFF" stroke-opacity="0.26"/>
  <rect x="258" y="198" width="350" height="148" rx="18" fill="#FFFFFF" fill-opacity="0.9"/>
  <rect x="640" y="198" width="302" height="148" rx="18" fill="#FFFFFF" fill-opacity="0.75"/>
  <rect x="258" y="376" width="684" height="158" rx="18" fill="#FFFFFF" fill-opacity="0.84"/>
  <rect x="292" y="234" width="108" height="18" rx="9" fill="#1D255A"/>
  <rect x="292" y="266" width="196" height="42" rx="12" fill="#6A72FF"/>
  <rect x="674" y="228" width="186" height="12" rx="6" fill="#2D2A63"/>
  <rect x="674" y="252" width="232" height="12" rx="6" fill="#2D2A63" fill-opacity="0.6"/>
  <rect x="292" y="412" width="260" height="12" rx="6" fill="#293061"/>
  <rect x="292" y="438" width="472" height="12" rx="6" fill="#293061" fill-opacity="0.66"/>
  <rect x="292" y="464" width="420" height="12" rx="6" fill="#293061" fill-opacity="0.5"/>
  <circle cx="870" cy="438" r="46" fill="#57D9B4"/>
  <path d="M849 439L862 452L892 422" stroke="#1B2E63" stroke-width="12" stroke-linecap="round" stroke-linejoin="round"/>
</svg>
